<?xml version="1.0" encoding="UTF-8" standalone="no"?>
<!DOCTYPE svg PUBLIC "-//W3C//DTD SVG 1.1//EN"
 "http://www.w3.org/Graphics/SVG/1.1/DTD/svg11.dtd">
<!-- Generated by graphviz version 14.1.5 (0)
 -->
<!-- Title: architecture Pages: 1 -->
<svg width="1369pt" height="165pt"
 viewBox="0.00 0.00 1369.00 165.00" xmlns="http://www.w3.org/2000/svg" xmlns:xlink="http://www.w3.org/1999/xlink">
<g id="graph0" class="graph" transform="scale(2.08333 2.08333) rotate(0) translate(4 75.33)">
<title>architecture</title>
<!-- client -->
<g id="node1" class="node">
<title>client</title>
<path fill="#e3f2fd" stroke="#1565c0" d="M138.45,-54.88C138.45,-54.88 12,-54.88 12,-54.88 6,-54.88 0,-48.88 0,-42.88 0,-42.88 0,-23.28 0,-23.28 0,-17.28 6,-11.28 12,-11.28 12,-11.28 138.45,-11.28 138.45,-11.28 144.45,-11.28 150.45,-17.28 150.45,-23.28 150.45,-23.28 150.45,-42.88 150.45,-42.88 150.45,-48.88 144.45,-54.88 138.45,-54.88"/>
<text xml:space="preserve" text-anchor="start" x="29.1" y="-33.68" font-family="Helvetica,sans-Serif" font-weight="bold" font-size="12.00">OpenAI Client</text>
<text xml:space="preserve" text-anchor="start" x="21.6" y="-23.58" font-family="Helvetica,sans-Serif" font-size="10.00">SDK / curl / LangChain</text>
</g>
<!-- proxy -->
<g id="node2" class="node">
<title>proxy</title>
<path fill="#fff3e0" stroke="#e65100" d="M363.9,-54.88C363.9,-54.88 306.45,-54.88 306.45,-54.88 300.45,-54.88 294.45,-48.88 294.45,-42.88 294.45,-42.88 294.45,-23.28 294.45,-23.28 294.45,-17.28 300.45,-11.28 306.45,-11.28 306.45,-11.28 363.9,-11.28 363.9,-11.28 369.9,-11.28 375.9,-17.28 375.9,-23.28 375.9,-23.28 375.9,-42.88 375.9,-42.88 375.9,-48.88 369.9,-54.88 363.9,-54.88"/>
<text xml:space="preserve" text-anchor="start" x="316.05" y="-33.68" font-family="Helvetica,sans-Serif" font-weight="bold" font-size="12.00">Proxy</text>
<text xml:space="preserve" text-anchor="start" x="317.55" y="-23.58" font-family="Helvetica,sans-Serif" font-size="10.00">FastAPI</text>
</g>
<!-- client&#45;&gt;proxy -->
<g id="edge1" class="edge">
<title>client&#45;&gt;proxy</title>
<path fill="none" stroke="#555555" d="M150.72,-35.71C156.72,-35.86 162.68,-35.98 168.45,-36.08 216.44,-36.86 228.47,-37.32 276.45,-36.08 278.5,-36.02 280.6,-35.96 282.72,-35.89"/>
<polygon fill="#555555" stroke="#555555" points="282.76,-39.39 292.61,-35.49 282.48,-32.39 282.76,-39.39"/>
<text xml:space="preserve" text-anchor="middle" x="222.45" y="-52.85" font-family="Helvetica,sans-Serif" font-size="10.00" fill="#1565c0"> &#160;/v1/models</text>
<text xml:space="preserve" text-anchor="middle" x="222.45" y="-40.1" font-family="Helvetica,sans-Serif" font-size="10.00" fill="#1565c0"> &#160;/v1/chat/completions</text>
</g>
<!-- proxy&#45;&gt;client -->
<g id="edge4" class="edge">
<title>proxy&#45;&gt;client</title>
<path fill="none" stroke="#555555" stroke-dasharray="5,2" d="M294.26,-12.11C288.42,-9.83 282.38,-7.87 276.45,-6.58 229.56,3.67 215.98,0.12 168.45,-6.58 164.66,-7.11 160.82,-7.76 156.95,-8.5"/>
<polygon fill="#555555" stroke="#555555" points="156.56,-5.01 147.51,-10.5 158.02,-11.85 156.56,-5.01"/>
<text xml:space="preserve" text-anchor="middle" x="222.45" y="-22.58" font-family="Helvetica,sans-Serif" font-size="10.00" fill="#1565c0"> &#160;translated</text>
<text xml:space="preserve" text-anchor="middle" x="222.45" y="-9.83" font-family="Helvetica,sans-Serif" font-size="10.00" fill="#1565c0"> &#160;response</text>
</g>
<!-- openwebui -->
<g id="node3" class="node">
<title>openwebui</title>
<path fill="#e8f5e9" stroke="#2e7d32" d="M637.35,-54.88C637.35,-54.88 534.9,-54.88 534.9,-54.88 528.9,-54.88 522.9,-48.88 522.9,-42.88 522.9,-42.88 522.9,-23.28 522.9,-23.28 522.9,-17.28 528.9,-11.28 534.9,-11.28 534.9,-11.28 637.35,-11.28 637.35,-11.28 643.35,-11.28 649.35,-17.28 649.35,-23.28 649.35,-23.28 649.35,-42.88 649.35,-42.88 649.35,-48.88 643.35,-54.88 637.35,-54.88"/>
<text xml:space="preserve" text-anchor="start" x="544.5" y="-33.68" font-family="Helvetica,sans-Serif" font-weight="bold" font-size="12.00">Open WebUI</text>
<text xml:space="preserve" text-anchor="start" x="562.12" y="-23.58" font-family="Helvetica,sans-Serif" font-size="10.00">Upstream</text>
</g>
<!-- proxy&#45;&gt;openwebui -->
<g id="edge2" class="edge">
<title>proxy&#45;&gt;openwebui</title>
<path fill="none" stroke="#555555" d="M376.17,-33.08C412.59,-33.08 467.27,-33.08 511.56,-33.08"/>
<polygon fill="#555555" stroke="#555555" points="511.35,-36.58 521.35,-33.08 511.35,-29.58 511.35,-36.58"/>
<text xml:space="preserve" text-anchor="middle" x="449.4" y="-61.83" font-family="Helvetica,sans-Serif" font-size="10.00" fill="#e65100"> &#160;/api/models</text>
<text xml:space="preserve" text-anchor="middle" x="449.4" y="-49.08" font-family="Helvetica,sans-Serif" font-size="10.00" fill="#e65100"> &#160;/api/chat/completions</text>
<text xml:space="preserve" text-anchor="middle" x="449.4" y="-36.33" font-family="Helvetica,sans-Serif" font-size="10.00" fill="#e65100"> &#160;+ Bearer JWT</text>
</g>
<!-- openwebui&#45;&gt;proxy -->
<g id="edge3" class="edge">
<title>openwebui&#45;&gt;proxy</title>
<path fill="none" stroke="#555555" stroke-dasharray="5,2" d="M522.69,-18.75C516.7,-17.76 510.7,-16.93 504.9,-16.33 455.83,-11.26 442.74,-9.38 393.9,-16.33 391.73,-16.63 389.53,-17 387.31,-17.43"/>
<polygon fill="#555555" stroke="#555555" points="386.71,-13.97 377.71,-19.56 388.23,-20.81 386.71,-13.97"/>
<text xml:space="preserve" text-anchor="middle" x="449.4" y="-19.58" font-family="Helvetica,sans-Serif" font-size="10.00" fill="#2e7d32"> &#160;response</text>
</g>
</g>
</svg>
